screens;
 
http://imgcum.com/img-507f18fc31ef9.html
 
http://imgcum.com/img-507f19134f46c.html

Format                                   : MPEG-4
Format profile                           : Base Media
Codec ID                                 : isom
File size                                : 688 MiB
Duration                                 : 9mn 7s
Overall bit rate                         : 10.5 Mbps
Writing application                      : Lavf54.23.101

Video
ID                                       : 1
Format                                   : AVC
Format/Info                              : Advanced Video Codec
Format profile                           : High@L4.1
Format settings, CABAC                   : Yes
Format settings, ReFrames                : 5 frames
Codec ID                                 : avc1
Codec ID/Info                            : Advanced Video Coding
Duration                                 : 9mn 7s
Bit rate                                 : 10 000 Kbps
Width                                    : 1 280 pixels
Height                                   : 720 pixels
Display aspect ratio                     : 16:9
Frame rate mode                          : Constant
Frame rate                               : 29.970 fps
Color space                              : YUV
Chroma subsampling                       : 4:2:0
Bit depth                                : 8 bits
Scan type                                : Progressive
Bits/(Pixel*Frame)                       : 0.362
Stream size                              : 651 MiB (95%)
Writing library                          : x264 core 125 r2208 d9d2288
Tagged date                              : UTC 2012-10-03 08:22:44

Audio
ID                                       : 2
Format                                   : AAC
Format/Info                              : Advanced Audio Codec
Format profile                           : LC
Codec ID                                 : 40
Duration                                 : 9mn 7s
Duration_LastFrame                       : -15ms
Bit rate mode                            : Constant
Bit rate                                 : 128 Kbps
Channel(s)                               : 2 channels
Channel positions                        : Front: L R
Sampling rate                            : 48.0 KHz
Compression mode                         : Lossy
Stream size                              : 8.36 MiB (1%)
Tagged date                              : UTC 2012-10-03 08:22:44